<mxfile host="app.diagrams.net" modified="2022-09-07T17:53:11.042Z" agent="5.0 (Windows NT 10.0; Win64; x64) AppleWebKit/537.36 (KHTML, like Gecko) Chrome/105.0.0.0 Safari/537.36" etag="G41a3Lai3zKMRFLI5pYV" version="20.3.0" type="github">
  <diagram id="Iyefc5zB6qZPd4IoqnZF" name="Page-1">
    <mxGraphModel dx="782" dy="401" grid="1" gridSize="10" guides="1" tooltips="1" connect="1" arrows="1" fold="1" page="1" pageScale="1" pageWidth="850" pageHeight="1100" background="#ffffff" math="0" shadow="0">
      <root>
        <mxCell id="0" />
        <mxCell id="1" parent="0" />
        <mxCell id="wtY6PaKlRzJbCYZbcXCp-1" value="AWS Account" style="points=[[0,0],[0.25,0],[0.5,0],[0.75,0],[1,0],[1,0.25],[1,0.5],[1,0.75],[1,1],[0.75,1],[0.5,1],[0.25,1],[0,1],[0,0.75],[0,0.5],[0,0.25]];outlineConnect=0;gradientColor=none;html=1;whiteSpace=wrap;fontSize=12;fontStyle=0;container=1;pointerEvents=0;collapsible=0;recursiveResize=0;shape=mxgraph.aws4.group;grIcon=mxgraph.aws4.group_account;strokeColor=#CD2264;fillColor=none;verticalAlign=top;align=left;spacingLeft=30;fontColor=#CD2264;dashed=0;" parent="1" vertex="1">
          <mxGeometry x="279" y="144" width="440" height="460" as="geometry" />
        </mxCell>
        <mxCell id="wtY6PaKlRzJbCYZbcXCp-3" value="VPC" style="points=[[0,0],[0.25,0],[0.5,0],[0.75,0],[1,0],[1,0.25],[1,0.5],[1,0.75],[1,1],[0.75,1],[0.5,1],[0.25,1],[0,1],[0,0.75],[0,0.5],[0,0.25]];outlineConnect=0;gradientColor=none;html=1;whiteSpace=wrap;fontSize=12;fontStyle=0;container=1;pointerEvents=0;collapsible=0;recursiveResize=0;shape=mxgraph.aws4.group;grIcon=mxgraph.aws4.group_vpc;strokeColor=#248814;fillColor=none;verticalAlign=top;align=left;spacingLeft=30;fontColor=#AAB7B8;dashed=0;" parent="wtY6PaKlRzJbCYZbcXCp-1" vertex="1">
          <mxGeometry x="20" y="50" width="400" height="380" as="geometry" />
        </mxCell>
        <mxCell id="wtY6PaKlRzJbCYZbcXCp-4" value="Region" style="points=[[0,0],[0.25,0],[0.5,0],[0.75,0],[1,0],[1,0.25],[1,0.5],[1,0.75],[1,1],[0.75,1],[0.5,1],[0.25,1],[0,1],[0,0.75],[0,0.5],[0,0.25]];outlineConnect=0;gradientColor=none;html=1;whiteSpace=wrap;fontSize=12;fontStyle=0;container=1;pointerEvents=0;collapsible=0;recursiveResize=0;shape=mxgraph.aws4.group;grIcon=mxgraph.aws4.group_region;strokeColor=#147EBA;fillColor=none;verticalAlign=top;align=left;spacingLeft=30;fontColor=#147EBA;dashed=1;" parent="wtY6PaKlRzJbCYZbcXCp-3" vertex="1">
          <mxGeometry x="20" y="30" width="350" height="320" as="geometry" />
        </mxCell>
        <mxCell id="wtY6PaKlRzJbCYZbcXCp-8" value="" style="sketch=0;points=[[0,0,0],[0.25,0,0],[0.5,0,0],[0.75,0,0],[1,0,0],[0,1,0],[0.25,1,0],[0.5,1,0],[0.75,1,0],[1,1,0],[0,0.25,0],[0,0.5,0],[0,0.75,0],[1,0.25,0],[1,0.5,0],[1,0.75,0]];outlineConnect=0;fontColor=#232F3E;gradientColor=#F78E04;gradientDirection=north;fillColor=#D05C17;strokeColor=#ffffff;dashed=0;verticalLabelPosition=bottom;verticalAlign=top;align=center;html=1;fontSize=12;fontStyle=0;aspect=fixed;shape=mxgraph.aws4.resourceIcon;resIcon=mxgraph.aws4.compute;" parent="wtY6PaKlRzJbCYZbcXCp-4" vertex="1">
          <mxGeometry x="20" y="33" width="54" height="54" as="geometry" />
        </mxCell>
        <mxCell id="wtY6PaKlRzJbCYZbcXCp-13" value="" style="edgeStyle=none;rounded=0;orthogonalLoop=1;jettySize=auto;html=1;" parent="wtY6PaKlRzJbCYZbcXCp-4" source="wtY6PaKlRzJbCYZbcXCp-9" target="wtY6PaKlRzJbCYZbcXCp-12" edge="1">
          <mxGeometry relative="1" as="geometry" />
        </mxCell>
        <mxCell id="wtY6PaKlRzJbCYZbcXCp-9" value="" style="sketch=0;points=[[0,0,0],[0.25,0,0],[0.5,0,0],[0.75,0,0],[1,0,0],[0,1,0],[0.25,1,0],[0.5,1,0],[0.75,1,0],[1,1,0],[0,0.25,0],[0,0.5,0],[0,0.75,0],[1,0.25,0],[1,0.5,0],[1,0.75,0]];outlineConnect=0;fontColor=#232F3E;gradientColor=#60A337;gradientDirection=north;fillColor=#277116;strokeColor=#ffffff;dashed=0;verticalLabelPosition=bottom;verticalAlign=top;align=center;html=1;fontSize=12;fontStyle=0;aspect=fixed;shape=mxgraph.aws4.resourceIcon;resIcon=mxgraph.aws4.elastic_block_store;" parent="wtY6PaKlRzJbCYZbcXCp-4" vertex="1">
          <mxGeometry x="140" y="30" width="60" height="60" as="geometry" />
        </mxCell>
        <mxCell id="wtY6PaKlRzJbCYZbcXCp-12" value="" style="sketch=0;outlineConnect=0;fontColor=#232F3E;gradientColor=none;fillColor=#3F8624;strokeColor=none;dashed=0;verticalLabelPosition=bottom;verticalAlign=top;align=center;html=1;fontSize=12;fontStyle=0;aspect=fixed;pointerEvents=1;shape=mxgraph.aws4.snapshot;" parent="wtY6PaKlRzJbCYZbcXCp-4" vertex="1">
          <mxGeometry x="141" y="184" width="56" height="78" as="geometry" />
        </mxCell>
        <mxCell id="wtY6PaKlRzJbCYZbcXCp-19" value="EBS Snapshot" style="text;html=1;strokeColor=none;fillColor=none;align=center;verticalAlign=middle;whiteSpace=wrap;rounded=0;" parent="wtY6PaKlRzJbCYZbcXCp-4" vertex="1">
          <mxGeometry x="140" y="280" width="86" height="30" as="geometry" />
        </mxCell>
        <mxCell id="wtY6PaKlRzJbCYZbcXCp-20" value="EBS Volume" style="text;html=1;strokeColor=none;fillColor=none;align=center;verticalAlign=middle;whiteSpace=wrap;rounded=0;" parent="wtY6PaKlRzJbCYZbcXCp-4" vertex="1">
          <mxGeometry x="131.5" width="77" height="30" as="geometry" />
        </mxCell>
        <mxCell id="wtY6PaKlRzJbCYZbcXCp-33" style="edgeStyle=none;rounded=0;orthogonalLoop=1;jettySize=auto;html=1;exitX=0.25;exitY=0;exitDx=0;exitDy=0;" parent="wtY6PaKlRzJbCYZbcXCp-4" source="wtY6PaKlRzJbCYZbcXCp-20" target="wtY6PaKlRzJbCYZbcXCp-4" edge="1">
          <mxGeometry relative="1" as="geometry" />
        </mxCell>
        <mxCell id="wtY6PaKlRzJbCYZbcXCp-40" value="" style="endArrow=classic;startArrow=classic;html=1;rounded=0;entryX=0;entryY=0.5;entryDx=0;entryDy=0;entryPerimeter=0;exitX=1;exitY=0.5;exitDx=0;exitDy=0;exitPerimeter=0;" parent="wtY6PaKlRzJbCYZbcXCp-4" source="wtY6PaKlRzJbCYZbcXCp-8" target="wtY6PaKlRzJbCYZbcXCp-9" edge="1">
          <mxGeometry width="50" height="50" relative="1" as="geometry">
            <mxPoint x="80" y="90" as="sourcePoint" />
            <mxPoint x="130" y="40" as="targetPoint" />
          </mxGeometry>
        </mxCell>
        <mxCell id="kg5m7zviNDhNUwLUvphP-1" value="EC2 Instance" style="text;html=1;strokeColor=none;fillColor=none;align=center;verticalAlign=middle;whiteSpace=wrap;rounded=0;" vertex="1" parent="wtY6PaKlRzJbCYZbcXCp-4">
          <mxGeometry x="14" y="90" width="60" height="30" as="geometry" />
        </mxCell>
        <mxCell id="wtY6PaKlRzJbCYZbcXCp-2" value="AWS Account" style="points=[[0,0],[0.25,0],[0.5,0],[0.75,0],[1,0],[1,0.25],[1,0.5],[1,0.75],[1,1],[0.75,1],[0.5,1],[0.25,1],[0,1],[0,0.75],[0,0.5],[0,0.25]];outlineConnect=0;gradientColor=none;html=1;whiteSpace=wrap;fontSize=12;fontStyle=0;container=1;pointerEvents=0;collapsible=0;recursiveResize=0;shape=mxgraph.aws4.group;grIcon=mxgraph.aws4.group_account;strokeColor=#CD2264;fillColor=none;verticalAlign=top;align=left;spacingLeft=30;fontColor=#CD2264;dashed=0;" parent="1" vertex="1">
          <mxGeometry x="869" y="144" width="590" height="460" as="geometry" />
        </mxCell>
        <mxCell id="wtY6PaKlRzJbCYZbcXCp-5" value="VPC" style="points=[[0,0],[0.25,0],[0.5,0],[0.75,0],[1,0],[1,0.25],[1,0.5],[1,0.75],[1,1],[0.75,1],[0.5,1],[0.25,1],[0,1],[0,0.75],[0,0.5],[0,0.25]];outlineConnect=0;gradientColor=none;html=1;whiteSpace=wrap;fontSize=12;fontStyle=0;container=1;pointerEvents=0;collapsible=0;recursiveResize=0;shape=mxgraph.aws4.group;grIcon=mxgraph.aws4.group_vpc;strokeColor=#248814;fillColor=none;verticalAlign=top;align=left;spacingLeft=30;fontColor=#AAB7B8;dashed=0;" parent="wtY6PaKlRzJbCYZbcXCp-2" vertex="1">
          <mxGeometry x="40" y="50" width="520" height="380" as="geometry" />
        </mxCell>
        <mxCell id="wtY6PaKlRzJbCYZbcXCp-6" value="Region" style="points=[[0,0],[0.25,0],[0.5,0],[0.75,0],[1,0],[1,0.25],[1,0.5],[1,0.75],[1,1],[0.75,1],[0.5,1],[0.25,1],[0,1],[0,0.75],[0,0.5],[0,0.25]];outlineConnect=0;gradientColor=none;html=1;whiteSpace=wrap;fontSize=12;fontStyle=0;container=1;pointerEvents=0;collapsible=0;recursiveResize=0;shape=mxgraph.aws4.group;grIcon=mxgraph.aws4.group_region;strokeColor=#147EBA;fillColor=none;verticalAlign=top;align=left;spacingLeft=30;fontColor=#147EBA;dashed=1;" parent="wtY6PaKlRzJbCYZbcXCp-5" vertex="1">
          <mxGeometry x="30" y="20" width="470" height="320" as="geometry" />
        </mxCell>
        <mxCell id="wtY6PaKlRzJbCYZbcXCp-7" value="" style="sketch=0;points=[[0,0,0],[0.25,0,0],[0.5,0,0],[0.75,0,0],[1,0,0],[0,1,0],[0.25,1,0],[0.5,1,0],[0.75,1,0],[1,1,0],[0,0.25,0],[0,0.5,0],[0,0.75,0],[1,0.25,0],[1,0.5,0],[1,0.75,0]];outlineConnect=0;fontColor=#232F3E;gradientColor=#F78E04;gradientDirection=north;fillColor=#D05C17;strokeColor=#ffffff;dashed=0;verticalLabelPosition=bottom;verticalAlign=top;align=center;html=1;fontSize=12;fontStyle=0;aspect=fixed;shape=mxgraph.aws4.resourceIcon;resIcon=mxgraph.aws4.compute;" parent="wtY6PaKlRzJbCYZbcXCp-6" vertex="1">
          <mxGeometry x="280" y="39.5" width="54" height="54" as="geometry" />
        </mxCell>
        <mxCell id="wtY6PaKlRzJbCYZbcXCp-17" style="edgeStyle=none;rounded=0;orthogonalLoop=1;jettySize=auto;html=1;" parent="wtY6PaKlRzJbCYZbcXCp-6" source="wtY6PaKlRzJbCYZbcXCp-14" target="wtY6PaKlRzJbCYZbcXCp-16" edge="1">
          <mxGeometry relative="1" as="geometry" />
        </mxCell>
        <mxCell id="wtY6PaKlRzJbCYZbcXCp-14" value="" style="sketch=0;outlineConnect=0;fontColor=#232F3E;gradientColor=none;fillColor=#3F8624;strokeColor=none;dashed=0;verticalLabelPosition=bottom;verticalAlign=top;align=center;html=1;fontSize=12;fontStyle=0;aspect=fixed;pointerEvents=1;shape=mxgraph.aws4.snapshot;" parent="wtY6PaKlRzJbCYZbcXCp-6" vertex="1">
          <mxGeometry x="150" y="192" width="56" height="78" as="geometry" />
        </mxCell>
        <mxCell id="wtY6PaKlRzJbCYZbcXCp-18" style="edgeStyle=none;rounded=0;orthogonalLoop=1;jettySize=auto;html=1;entryX=0;entryY=0.5;entryDx=0;entryDy=0;entryPerimeter=0;" parent="wtY6PaKlRzJbCYZbcXCp-6" source="wtY6PaKlRzJbCYZbcXCp-16" target="wtY6PaKlRzJbCYZbcXCp-7" edge="1">
          <mxGeometry relative="1" as="geometry" />
        </mxCell>
        <mxCell id="wtY6PaKlRzJbCYZbcXCp-16" value="" style="outlineConnect=0;dashed=0;verticalLabelPosition=bottom;verticalAlign=top;align=center;html=1;shape=mxgraph.aws3.ami;fillColor=#F58534;gradientColor=none;" parent="wtY6PaKlRzJbCYZbcXCp-6" vertex="1">
          <mxGeometry x="151" y="35" width="60" height="63" as="geometry" />
        </mxCell>
        <mxCell id="wtY6PaKlRzJbCYZbcXCp-21" value="EBS Snapshot" style="text;html=1;strokeColor=none;fillColor=none;align=center;verticalAlign=middle;whiteSpace=wrap;rounded=0;" parent="wtY6PaKlRzJbCYZbcXCp-6" vertex="1">
          <mxGeometry x="15" y="280" width="86" height="30" as="geometry" />
        </mxCell>
        <mxCell id="wtY6PaKlRzJbCYZbcXCp-22" value="" style="sketch=0;outlineConnect=0;fontColor=#232F3E;gradientColor=none;fillColor=#3F8624;strokeColor=none;dashed=0;verticalLabelPosition=bottom;verticalAlign=top;align=center;html=1;fontSize=12;fontStyle=0;aspect=fixed;pointerEvents=1;shape=mxgraph.aws4.snapshot;" parent="wtY6PaKlRzJbCYZbcXCp-6" vertex="1">
          <mxGeometry x="30" y="192" width="56" height="78" as="geometry" />
        </mxCell>
        <mxCell id="wtY6PaKlRzJbCYZbcXCp-24" style="edgeStyle=none;rounded=0;orthogonalLoop=1;jettySize=auto;html=1;" parent="wtY6PaKlRzJbCYZbcXCp-6" source="wtY6PaKlRzJbCYZbcXCp-22" target="wtY6PaKlRzJbCYZbcXCp-14" edge="1">
          <mxGeometry relative="1" as="geometry" />
        </mxCell>
        <mxCell id="wtY6PaKlRzJbCYZbcXCp-25" value="EBS Snapshot Copy" style="text;html=1;strokeColor=none;fillColor=none;align=center;verticalAlign=middle;whiteSpace=wrap;rounded=0;" parent="wtY6PaKlRzJbCYZbcXCp-6" vertex="1">
          <mxGeometry x="130" y="280" width="100" height="30" as="geometry" />
        </mxCell>
        <mxCell id="wtY6PaKlRzJbCYZbcXCp-26" value="AMI" style="text;html=1;strokeColor=none;fillColor=none;align=center;verticalAlign=middle;whiteSpace=wrap;rounded=0;" parent="wtY6PaKlRzJbCYZbcXCp-6" vertex="1">
          <mxGeometry x="146" y="5" width="60" height="30" as="geometry" />
        </mxCell>
        <mxCell id="wtY6PaKlRzJbCYZbcXCp-27" value="New EC2 Instance" style="text;html=1;strokeColor=none;fillColor=none;align=center;verticalAlign=middle;whiteSpace=wrap;rounded=0;" parent="wtY6PaKlRzJbCYZbcXCp-6" vertex="1">
          <mxGeometry x="274" y="5" width="60" height="30" as="geometry" />
        </mxCell>
        <mxCell id="wtY6PaKlRzJbCYZbcXCp-28" value="" style="sketch=0;points=[[0,0,0],[0.25,0,0],[0.5,0,0],[0.75,0,0],[1,0,0],[0,1,0],[0.25,1,0],[0.5,1,0],[0.75,1,0],[1,1,0],[0,0.25,0],[0,0.5,0],[0,0.75,0],[1,0.25,0],[1,0.5,0],[1,0.75,0]];outlineConnect=0;fontColor=#232F3E;gradientColor=#60A337;gradientDirection=north;fillColor=#277116;strokeColor=#ffffff;dashed=0;verticalLabelPosition=bottom;verticalAlign=top;align=center;html=1;fontSize=12;fontStyle=0;aspect=fixed;shape=mxgraph.aws4.resourceIcon;resIcon=mxgraph.aws4.elastic_block_store;" parent="wtY6PaKlRzJbCYZbcXCp-6" vertex="1">
          <mxGeometry x="380" y="37.5" width="60" height="60" as="geometry" />
        </mxCell>
        <mxCell id="wtY6PaKlRzJbCYZbcXCp-39" value="" style="endArrow=classic;startArrow=classic;html=1;rounded=0;entryX=0;entryY=0.5;entryDx=0;entryDy=0;entryPerimeter=0;exitX=1;exitY=0.5;exitDx=0;exitDy=0;exitPerimeter=0;" parent="wtY6PaKlRzJbCYZbcXCp-6" source="wtY6PaKlRzJbCYZbcXCp-7" target="wtY6PaKlRzJbCYZbcXCp-28" edge="1">
          <mxGeometry width="50" height="50" relative="1" as="geometry">
            <mxPoint x="330" y="90" as="sourcePoint" />
            <mxPoint x="380" y="40" as="targetPoint" />
          </mxGeometry>
        </mxCell>
        <mxCell id="UkzB8c46qZ3D1uV1J5Fx-1" value="EBS Volume" style="text;html=1;strokeColor=none;fillColor=none;align=center;verticalAlign=middle;whiteSpace=wrap;rounded=0;" parent="wtY6PaKlRzJbCYZbcXCp-6" vertex="1">
          <mxGeometry x="380" y="5" width="60" height="30" as="geometry" />
        </mxCell>
        <mxCell id="wtY6PaKlRzJbCYZbcXCp-23" style="edgeStyle=none;rounded=0;orthogonalLoop=1;jettySize=auto;html=1;" parent="1" source="wtY6PaKlRzJbCYZbcXCp-12" target="wtY6PaKlRzJbCYZbcXCp-22" edge="1">
          <mxGeometry relative="1" as="geometry" />
        </mxCell>
        <mxCell id="wtY6PaKlRzJbCYZbcXCp-34" style="edgeStyle=none;rounded=0;orthogonalLoop=1;jettySize=auto;html=1;exitX=0.25;exitY=0;exitDx=0;exitDy=0;" parent="1" source="wtY6PaKlRzJbCYZbcXCp-2" target="wtY6PaKlRzJbCYZbcXCp-2" edge="1">
          <mxGeometry relative="1" as="geometry" />
        </mxCell>
      </root>
    </mxGraphModel>
  </diagram>
</mxfile>
